# xmcd
#
# Track frame offsets: 
#        150
#        10312
#        23050
#        31860
#        41705
#        53780
#        66702
#        80000
#        91362
#        103615
#        117180
#        125890
#        139510
#        152190
#        165210
#        177717
#        187162
#        198060
#        214877
#        225362
#        238777
#        248827
#        265685
#        278592
#
# Disc length: 3875 seconds
#
# Revision: 3
# Processed by: cddbd v1.5.2PL0 Copyright (c) Steve Scherf et al.
# Submitted via: ExactAudioCopy v0.99pb5
#
DISCID=500f2118
DTITLE=The Troggs - Cellophane - Mixed Bag
DYEAR=1997
DGENRE=Beat
TTITLE0=Little Red Donkey
TTITLE1=Too Much Of A Good Thing
TTITLE2=Butterflies And Bees
TTITLE3=All Of The Time
TTITLE4=Seventeen
TTITLE5=Somewhere My Girl Is Waiting
TTITLE6=It's Showing
TTITLE7=Her Emotion
TTITLE8=When Will The Rain Come
TTITLE9=My Lady
TTITLE10=Come The Day
TTITLE11=Love Is All Around
TTITLE12=Surprise Surprise
TTITLE13=You Can Cry If You Want To
TTITLE14=Say Darlin'
TTITLE15=Marbles And Some Gum
TTITLE16=Purple Shades
TTITLE17=Heads Or Tails
TTITLE18=Hip Hip Hooray
TTITLE19=Little Girl
TTITLE20=Maybe The Madman
TTITLE21=Off The Record
TTITLE22=We Waited For Someone
TTITLE23=There's Something About You
EXTD=
EXTT0=
EXTT1=
EXTT2=
EXTT3=
EXTT4=
EXTT5=
EXTT6=
EXTT7=
EXTT8=
EXTT9=
EXTT10=
EXTT11=
EXTT12=
EXTT13=
EXTT14=
EXTT15=
EXTT16=
EXTT17=
EXTT18=
EXTT19=
EXTT20=
EXTT21=
EXTT22=
EXTT23=
PLAYORDER=
